# xmcd
#
# Track frame offsets: 
#        150
#        20336
#        34470
#        52508
#        67784
#        82019
#        98773
#        115984
#        133560
#        150983
#
# Disc length: 2425 seconds
#
# Revision: 0
# Processed by: cddbd v1.5.2PL0 Copyright (c) Steve Scherf et al.
# Submitted via: ExactAudioCopy v1.0b1
#
DISCID=6f09770a
DTITLE=Wilson Pickett - It Ain't Easy
DYEAR=2009
DGENRE=Soul
TTITLE0=Soul Survivor
TTITLE1=It Ain't Easy
TTITLE2=Stone Crazy World
TTITLE3=Outskirts of Town
TTITLE4=Bad People
TTITLE5=It's Harder Now
TTITLE6=All About Sex
TTITLE7=Taxi Love
TTITLE8=Better Him Than Me
TTITLE9=Stomp
EXTD=
EXTT0=
EXTT1=
EXTT2=
EXTT3=
EXTT4=
EXTT5=
EXTT6=
EXTT7=
EXTT8=
EXTT9=
PLAYORDER=
